# xmcd
#
# Track frame offsets:
#	150
#	20708
#	36055
#	56206
#	71245
#	91927
#	112818
#	131544
#	150974
#	169224
#	191875
#	210952
#	230370
#
# Disc length: 3330 seconds
#
# Revision: 0
# Processed by: cddbd v1.5.2PL0 Copyright (c) Steve Scherf et al.
# Submitted via: EasyCDDAExtractor 9.1.3.1
#
DISCID=ab0d000d
DTITLE=Sxoinas - Ta apolitos aparaitita ( cd 2 )
DYEAR=1900
DGENRE=Acid Punk
TTITLE0=me melanxolei
TTITLE1=ponas gia mena
TTITLE2=gia mena eisai i pio omorfi
TTITLE3=ti twra ti meta
TTITLE4=den tha me ksexnas
TTITLE5=min anisyxeis
TTITLE6=tha kleisw kai se pairnw
TTITLE7=de se ksexasa
TTITLE8=mou tairiazeis
TTITLE9=sygkinonounta doxeia
TTITLE10=taram taram tam
TTITLE11=min mou zitas
TTITLE12=h mera tis krisis
EXTD=
EXTT0=
EXTT1=
EXTT2=
EXTT3=
EXTT4=
EXTT5=
EXTT6=
EXTT7=
EXTT8=
EXTT9=
EXTT10=
EXTT11=
EXTT12=
PLAYORDER=
